<svg xmlns="http://www.w3.org/2000/svg" xmlns:xlink="http://www.w3.org/1999/xlink" xml:space="preserve" version="1.1" style="shape-rendering:geometricPrecision;text-rendering:geometricPrecision;image-rendering:optimizeQuality;" viewBox="0 0 338.08 305.63" x="0px" y="0px" fill-rule="evenodd" clip-rule="evenodd"><defs><style type="text/css">
   
    .fil0 {fill:black}
   
  </style></defs><g><path class="fil0" d="M206.31 0.31c-6.22,1.24 -13.13,5.52 -19.33,11.97 -2.58,2.67 -4.94,5.75 -5.95,7.72 -0.29,0.61 -0.59,1.08 -0.63,1.08 -0.05,0 -0.7,-0.83 -1.44,-1.86 -4.76,-6.54 -11.21,-11.57 -17.22,-13.48 -3.93,-1.23 -6.67,-0.98 -10.56,0.97 -1.23,0.63 -2.51,1.12 -2.83,1.12 -0.74,0 -2.27,-0.51 -6.42,-2.22 -7.52,-3.03 -12.08,-4.27 -16.57,-4.45 -3.4,-0.15 -5.84,0.27 -8.13,1.4 -2.61,1.28 -3.66,2.69 -5.73,7.63 -0.63,1.53 -0.88,1.87 -1.64,2.29 -1.23,0.7 -1.48,0.68 -1.3,-0.16 0.16,-0.89 -0.41,-1.43 -4.9,-4.53 -6.04,-4.16 -8.28,-5.01 -13.22,-4.96 -1.67,0.02 -4,0.2 -5.17,0.38 -7.16,1.19 -8.15,1.3 -11.07,1.16 -1.57,-0.06 -4.81,-0.42 -7.19,-0.78 -5.86,-0.9 -6.98,-0.99 -8.8,-0.7 -3.46,0.52 -5.93,2.36 -8.06,6.02 -1.91,3.28 -2.92,6.69 -3.73,12.62 -0.81,6.02 -1.17,6.9 -3.73,9.7 -2.85,3.15 -3.59,4.9 -3.39,8.16 0.18,3.09 1.64,6.04 4.42,8.87l1.71 1.73 -1.39 0.26c-2.63,0.48 -5.37,1.4 -7.84,2.59 -5.34,2.6 -7.86,5.5 -8.78,10.04 -0.31,1.59 -0.36,2.6 -0.22,6.49 0.27,8.24 -0.3,10.01 -4.85,15.36 -5.6,6.53 -7.17,9.9 -6.36,13.65 0.47,2.29 1.39,3.82 4.15,6.92 0.84,0.92 1.62,1.91 1.78,2.18 0.36,0.71 0.31,2.35 -0.2,5 -1.33,6.85 -0.52,11.52 2.89,16.51 1.13,1.64 1.17,1.57 -2.31,2.67 -3.21,1.01 -4.99,2.07 -7.12,4.2 -1.64,1.64 -1.84,1.93 -4.36,6.96 -2.29,4.56 -3.09,5.93 -6.22,10.38 -1.97,2.81 -3.77,5.54 -4.02,6.08 -1.03,2.36 -0.69,4.45 1.1,6.83 2.07,2.72 4.77,4.4 10.69,6.72 6.31,2.47 7.01,3.05 9.55,8.24 2.02,4.11 3.34,5.88 5.52,7.43 2.11,1.51 3.55,1.98 6.52,2.09l2.47 0.09 -0.07 0.92c-0.14,1.53 0.54,3.84 2.06,7.1 2.03,4.31 2.25,5.16 2.09,8.19 -0.11,2.7 -0.15,2.85 -2.8,10.38 -1.67,4.69 -2.07,6.58 -2.07,9.59 0,3.48 0.79,6.15 2.67,9 0.32,0.5 1.57,2.07 2.79,3.51 2.49,2.94 3.81,5.3 4.29,7.74 0.18,0.86 0.49,3.24 0.69,5.26 0.41,3.91 0.77,5.64 1.48,7.14 1.76,3.64 5.66,5.93 15.7,9.18 7.64,2.47 8.45,2.79 12.35,4.61 4.72,2.2 6.4,2.72 9.1,2.83 1.5,0.07 2.63,0 3.43,-0.23 0.63,-0.18 1.17,-0.24 1.17,-0.18 0.02,1.67 0.59,4.43 1.13,5.6 1.63,3.5 4.96,7.27 9.2,10.46 4.25,3.19 5.01,4.09 6.4,7.46 2,4.89 3.55,6.35 6.63,6.37 1.91,0 4.29,-0.67 7.09,-1.99 3.04,-1.46 4.07,-2.14 8.4,-5.62 6.07,-4.85 6.83,-5.16 13.25,-5.39 4.22,-0.13 4.43,-0.16 5.73,-0.78 1.82,-0.88 4.69,-3.78 5.73,-5.78l0.76 -1.5 1.68 2.51c2.34,3.46 5.42,6.52 7.66,7.6 2,0.96 3.62,1.41 6.51,1.77 3.06,0.36 6,0.18 16.15,-1.03 3.68,-0.43 5.1,-0.27 9.14,1.05 2.67,0.86 3.1,0.94 5.37,0.94 2.24,0.03 2.58,-0.02 3.73,-0.58 0.69,-0.36 2.15,-1.3 3.23,-2.13 2.49,-1.87 4.83,-3.33 7.55,-4.67 2.47,-1.26 3.57,-1.98 4.78,-3.17 2.38,-2.36 3.61,-5.5 4.51,-11.5l0.16 -0.96 1.48 1.39c2.52,2.36 5.89,4.29 8.56,4.92 2.65,0.63 4.85,0.11 7.52,-1.73 2.49,-1.71 3.89,-1.82 7.97,-0.63 4,1.17 5.64,1.46 8.09,1.46 3.5,0 6.22,-0.94 7.7,-2.7 1.06,-1.21 1.3,-2.2 1.3,-5.07 0.03,-2.99 0.32,-3.93 2.11,-6.78 0.72,-1.15 1.49,-2.56 1.71,-3.15 0.61,-1.61 0.97,-4.31 0.81,-5.95 -0.14,-1.19 -1.06,-4.31 -1.8,-6.04 -0.15,-0.36 -0.06,-0.36 1.31,0.05 4.46,1.28 10.19,1.57 13.45,0.69 3.21,-0.85 5.14,-2.18 11.05,-7.54 5.39,-4.9 7.23,-5.96 12.62,-7.24 7.92,-1.86 9.45,-2.49 11.27,-4.44 1.57,-1.75 2.09,-3.21 2.22,-6.29 0.12,-3.19 -0.4,-5.79 -2.2,-11.16 -1.61,-4.85 -2.85,-7.66 -7.03,-16.06 -3.45,-6.96 -4.4,-9.41 -4.58,-11.86l-0.11 -1.57 1.98 -0.02c5.21,-0.04 10.33,-2.02 13.58,-5.25 2.14,-2.12 2.34,-2.68 2.79,-7.73 0.85,-9.5 1.39,-10.98 5.32,-14.57 2.31,-2.14 3.48,-3.55 4.4,-5.44 0.92,-1.86 1.1,-2.6 1.78,-7.68 0.87,-6.71 0.89,-7.37 0.22,-9 -0.74,-1.87 -2.78,-4.65 -5.21,-7.1 -2.38,-2.43 -3.41,-3.01 -11.05,-6.2l-5.01 -2.07 -0.13 -0.83c-0.38,-1.97 -0.2,-4.35 0.47,-6.31 0.54,-1.59 0.65,-2.27 0.67,-4.15 0,-2.09 -0.04,-2.36 -0.74,-3.8 -1.05,-2.24 -2.47,-4.26 -5.7,-8.19 -1.6,-1.94 -3.21,-4.16 -3.59,-4.94 -0.68,-1.35 -0.72,-1.6 -0.88,-4.94 -0.18,-4.11 -0.56,-5.57 -2.16,-7.95 -1.3,-1.96 -3.25,-3.58 -6.1,-5.06 -3.1,-1.61 -6,-2.67 -13.21,-4.76 -10.58,-3.08 -12.28,-3.93 -18.86,-9.41l-2.29 -1.91 1.01 -1.12c3.57,-4.04 5.05,-6.38 6.15,-9.66 1.03,-3.16 1.37,-5.14 1.5,-8.8 0.18,-4.94 -0.22,-7.37 -2.62,-15.47 -1.66,-5.62 -2.56,-9.3 -3.15,-12.98 -0.63,-4.04 -1.46,-5.5 -3.75,-6.65 -1.55,-0.79 -3.39,-1.15 -6.35,-1.3 -5.66,-0.27 -11.66,0.6 -19.81,2.94 -5.97,1.71 -7.84,2.04 -10.35,1.86 -2.38,-0.13 -3.64,-0.65 -6.49,-2.56 -2.97,-2 -4.31,-2.69 -6.43,-3.23 -1.97,-0.49 -5,-0.54 -7.23,-0.09l0 0zm6.85 2.85c1.31,0.34 2.83,1.15 5.62,2.99 2.85,1.91 5.05,2.76 7.7,2.94 2.29,0.18 4.6,-0.25 10.6,-1.93 8.06,-2.27 12.04,-2.92 17.9,-2.92 5.07,0 7.45,0.7 8.24,2.36 0.18,0.36 0.54,1.97 0.79,3.57 0.56,3.37 1.64,7.75 3.16,12.93 2.38,7.98 2.85,11.1 2.47,15.88 -0.49,6.31 -2.31,10.44 -6.49,14.94l-1.82 1.93 -1.37 -0.54c-3.23,-1.33 -6.58,-1.24 -11.25,0.27 -11.67,3.77 -22.45,10.71 -32.99,21.26 -6.37,6.38 -14.93,15.77 -18.91,20.75 -5.5,6.92 -9.14,12.04 -13.67,19.27 -3.42,5.41 -5.39,8.38 -5.26,7.86 0.43,-1.66 1.04,-4.71 1.04,-5.25 0,-0.54 0.11,-0.68 0.65,-0.77 1.41,-0.29 3.39,-3.23 3.39,-5.07 0,-1.1 -0.63,-1.64 -1.93,-1.6 -0.5,0.03 -1.08,-0.02 -1.33,-0.11 -0.65,-0.2 -1.19,0.47 -1.68,2.07 -0.77,2.38 -0.47,0.58 0.58,-3.46 2.25,-8.76 2.54,-9.95 3.08,-13.09 0.34,-1.8 1.19,-6.7 1.93,-10.89 1.59,-9.03 2.09,-12.24 2.72,-17.97 1.61,-14.98 1.7,-21.74 0.42,-29.31 -0.78,-4.6 -2.26,-9.61 -3.97,-13.31 -0.74,-1.67 -0.79,-1.82 -0.52,-2.59 1.87,-5.3 10.76,-14.14 17.99,-17.87 4.69,-2.45 9.28,-3.26 12.91,-2.34l0 0zm-84.91 1.1c2.72,0.36 6.67,1.6 12.49,3.91 5.73,2.27 7.23,2.72 8.33,2.47 0.4,-0.09 1.86,-0.72 3.28,-1.41 2.36,-1.15 2.72,-1.26 4.4,-1.35 2.36,-0.11 4.07,0.29 7.01,1.73 3.03,1.48 5.81,3.48 8.67,6.31 6.33,6.24 9.79,13.49 11.67,24.59 0.61,3.48 0.83,11.7 0.45,16.71 -0.74,9.7 -1.7,17.58 -3.05,25.06 -0.43,2.33 -1.24,6.94 -1.8,10.22 -1.21,7.14 -1.59,8.87 -3.16,14.71 -1.51,5.61 -2,8.06 -2.65,13.2 -0.3,2.25 -0.59,3.93 -0.66,3.75 -0.06,-0.18 -0.38,-2.2 -0.71,-4.49 -0.34,-2.29 -0.68,-4.27 -0.72,-4.42 -0.07,-0.16 0.15,-0.3 0.51,-0.34 1.06,-0.11 1.55,-1.08 1.62,-3.19 0.11,-2.65 -0.61,-3.86 -2.16,-3.68 -0.76,0.09 -1.68,1.41 -2.15,3.12 -0.47,1.66 -0.45,2.58 0.07,2.94 0.22,0.16 0.47,0.65 0.51,1.08 0.07,0.42 0.47,2.96 0.92,5.61 0.45,2.65 0.86,5.44 0.92,6.18 0.14,1.32 0.12,1.28 -0.85,-1.46 -0.54,-1.55 -1.19,-3.3 -1.46,-3.89 -0.43,-0.96 -0.43,-1.12 -0.13,-1.41 0.6,-0.61 0.42,-2.36 -0.41,-3.95 -0.72,-1.37 -0.76,-1.42 -1.61,-1.42 -0.84,0 -0.9,0.05 -0.97,0.67 -0.07,0.54 -0.49,-0.13 -2.49,-4.04 -2.52,-4.94 -4.38,-8.01 -8.02,-13.25 -5.97,-8.62 -9.43,-12.39 -25.15,-27.64 -10,-9.68 -12.31,-11.84 -19.2,-17.74 -10.92,-9.32 -14.71,-13.61 -15.81,-17.83 -0.61,-2.36 -0.38,-6.04 0.54,-8.76 0.98,-2.9 1.84,-4.31 3.75,-6.22 1.93,-1.96 3.68,-2.85 7.5,-3.89 4.44,-1.21 5.14,-1.79 6.71,-5.68 1.1,-2.67 1.57,-3.48 2.7,-4.49 2.09,-1.89 5.61,-2.43 11.11,-1.71l0 0zm-61.51 2.11c2.43,0.43 4.52,0.63 7.53,0.72 3.93,0.11 4.38,0.09 8.42,-0.6 5.05,-0.86 8.6,-1.08 10.78,-0.7 2.92,0.52 4.31,1.28 11.99,6.65 0.81,0.58 1.28,1.05 1.12,1.1 -4.76,1.5 -6.15,2.27 -8.4,4.53 -3.57,3.62 -5.7,9.23 -5.43,14.35 0.2,3.66 1.28,6.43 3.82,9.77 1.75,2.29 7.2,7.5 13.4,12.85 7.32,6.29 9.28,8.11 21.25,19.72 14.71,14.26 17.83,17.83 24.79,28.34 3.48,5.23 7.9,13.65 9.7,18.37 0.11,0.36 -0.6,-0.23 -1.97,-1.62 -2.03,-2.02 -2.16,-2.18 -1.82,-2.54 0.85,-0.83 0.09,-3.61 -1.46,-5.39l-0.92 -1.05 -1.49 0.15c-0.8,0.09 -1.59,0.25 -1.7,0.36 -0.16,0.12 -1.1,-0.87 -2.59,-2.67 -6.17,-7.5 -16.77,-18.68 -23.35,-24.66 -12.04,-10.87 -26.03,-19.98 -39.59,-25.78 -13.63,-5.84 -25.38,-8.62 -37.03,-8.78 -4.29,-0.07 -4.47,-0.09 -5.42,-0.63 -1.48,-0.87 -4.42,-4.09 -5.27,-5.79 -1.26,-2.52 -1.44,-4.94 -0.5,-7.1 0.23,-0.54 1.12,-1.7 2,-2.63 3.01,-3.18 3.71,-4.89 4.63,-11.4 0.31,-2.29 0.76,-4.92 0.98,-5.84 1.35,-5.21 4.14,-9.26 7.03,-10.13 1.62,-0.52 5.1,-0.36 9.5,0.4l0 0zm-4.71 46.47c18.37,2.51 38.04,11.14 55.76,24.43 11.86,8.89 25.15,22.23 36.67,36.79 4.65,5.86 5.77,7.38 4.78,6.49 -1.7,-1.58 -2.49,-2.05 -3.27,-1.96 -0.7,0.07 -0.75,0.14 -0.81,0.94 -0.09,1.08 0.94,3.33 2.09,4.54 0.67,0.7 0.87,0.81 1.45,0.7 0.48,-0.11 0.68,-0.07 0.68,0.15 0,0.16 1.57,1.64 3.48,3.31 1.91,1.64 3.48,3.03 3.48,3.07 0,0.09 0.29,0.27 -4.67,-2.8 -2.25,-1.4 -4.25,-2.54 -4.42,-2.54 -0.18,0 -0.39,-0.25 -0.48,-0.56 -0.38,-1.53 -4.94,-4.14 -6.13,-3.48 -0.99,0.51 -0.78,2.33 0.43,3.99 0.7,0.97 1.48,1.35 2.18,1.06 0.22,-0.09 0.99,-0.14 1.73,-0.11 1.07,0.02 1.48,0.15 2.35,0.76 0.57,0.4 2.03,1.32 3.24,2.04 1.19,0.72 2.18,1.33 2.18,1.35 0,0.05 -0.29,-0.04 -0.68,-0.18 -0.49,-0.2 -0.74,-0.18 -0.94,0.02 -0.2,0.21 -0.36,0.12 -0.67,-0.42 -0.56,-0.92 -2,-1.55 -3.62,-1.55 -1.8,0 -2.63,0.45 -2.63,1.43 0,0.92 0.45,1.35 2.05,1.96l1.21 0.45 -1.1 -0.12c-4.6,-0.53 -7.12,-0.65 -12.82,-0.65 -4.7,-0.02 -7.46,0.09 -9.88,0.39 -5.51,0.6 -15.23,2.06 -22.91,3.39 -17.34,3.01 -17.43,3.03 -25.06,3.03 -7.19,0 -14.31,-0.61 -26.03,-2.23 -2.65,-0.35 -5.84,-0.78 -7.07,-0.94 -3.17,-0.36 -9.59,-0.38 -12.96,0 -3.39,0.38 -4.04,0.25 -5.84,-1.14 -3.55,-2.79 -6.47,-6.02 -8,-8.9 -1.95,-3.66 -2.29,-7.09 -1.28,-12.75 0.66,-3.66 0.68,-4.13 0.23,-5.64 -0.36,-1.17 -0.79,-1.77 -3.33,-4.72 -1.93,-2.2 -2.65,-3.57 -2.78,-5.34 -0.2,-2.54 1.19,-5.08 5.79,-10.53 3.01,-3.6 4.05,-5.21 4.85,-7.66 0.61,-1.77 0.61,-1.89 0.68,-8.38 0.07,-8.69 0.36,-9.83 3.1,-12.37 3.01,-2.74 7.9,-4.74 13.25,-5.39 1.12,-0.14 2.27,-0.29 2.58,-0.34 1.3,-0.22 10.62,0.07 13.14,0.41l0 0zm196.26 4.85c1.14,0.36 1.53,0.6 1.75,1.08 0.23,0.47 0.5,0.62 1.21,0.71 0.75,0.12 1.44,0.57 3.69,2.43 6.35,5.23 8.82,6.47 19.31,9.48 9.66,2.78 13.59,4.47 16.21,6.91 2.38,2.23 3.04,4.02 3.31,9.1 0.15,3.28 0.22,3.59 0.87,4.94 0.79,1.57 1.57,2.69 3.98,5.55 2.6,3.1 4.4,5.61 5.23,7.38 1.03,2.16 1.08,3.62 0.16,6.32 -0.75,2.15 -0.84,4.26 -0.48,9.79 0.18,2.69 0.16,3.05 -0.29,4.56 -0.63,2.11 -1.73,3.23 -4.31,4.49 -3.86,1.84 -7.81,2.56 -14.13,2.56 -5.99,0.02 -11.54,-0.68 -23.01,-2.88 -11.43,-2.18 -21.05,-3.39 -34.03,-4.29 -9,-0.6 -21.89,-0.24 -29.53,0.83 -4.29,0.61 -14.93,3.3 -19.09,4.83 -0.4,0.16 -0.4,0.11 0.07,-0.4 0.72,-0.81 0.61,-1.73 -0.29,-2.2 -0.36,-0.18 -0.76,-0.47 -0.85,-0.63 -0.09,-0.14 -0.36,-0.27 -0.59,-0.27 -0.72,0 -2.42,1.1 -2.96,1.91 -0.29,0.42 -0.7,0.78 -0.88,0.78 -0.2,0 -0.74,0.27 -1.23,0.61 -0.7,0.47 -0.41,0.04 1.32,-1.84 1.21,-1.35 2.32,-2.67 2.43,-2.92 0.15,-0.36 0.42,-0.45 1.28,-0.45 2.76,0 5.61,-4.13 3.59,-5.26 -0.36,-0.2 -0.81,-0.26 -1.23,-0.15 -0.84,0.2 -2.79,2.22 -3.37,3.46 -0.23,0.51 -0.54,0.94 -0.68,0.94 -0.13,0 -1.01,0.88 -1.95,1.95 -1.71,2 -5.17,5.66 -4.29,4.58 0.25,-0.31 1.19,-1.41 2.09,-2.44 1.19,-1.33 1.62,-1.98 1.53,-2.29 -0.07,-0.3 0.02,-0.48 0.29,-0.57 1.21,-0.38 2.51,-2.94 2.11,-4.08 -0.34,-0.99 -0.85,-1.15 -1.69,-0.54 -0.4,0.29 -0.62,0.38 -0.53,0.22 0.76,-1.28 5.36,-8.55 6.42,-10.1 2.98,-4.47 10.19,-13.79 13.79,-17.86 3.86,-4.35 12.73,-13.76 15.49,-16.43 8.65,-8.38 17.29,-14.13 26.79,-17.88 6.11,-2.43 9.3,-2.9 12.49,-1.93l0 0zm-85.79 52.88c0.16,0.86 -0.02,2.3 -0.31,2.47 -0.25,0.16 -0.54,-2.17 -0.34,-2.78 0.23,-0.7 0.5,-0.56 0.65,0.31l0 0zm-12.53 3.37c1.08,1.91 0.95,2.23 -0.36,0.86 -0.76,-0.79 -1.12,-1.35 -1.12,-1.76 0,-0.98 0.67,-0.58 1.48,0.9zm21.43 0c0,0.79 -1.55,3.26 -2.05,3.26 -0.31,0 -0.38,-0.92 -0.11,-2.04 0.2,-0.97 0.34,-1.19 0.76,-1.22 0.27,-0.02 0.57,-0.11 0.66,-0.18 0.26,-0.29 0.74,-0.15 0.74,0.18zm-3.57 4.05c0.02,0.11 -0.05,0.47 -0.18,0.78 -0.14,0.32 -0.52,1.96 -0.88,3.66 -0.34,1.69 -0.65,3.06 -0.7,2.99 -0.04,-0.05 0.23,-2.2 0.61,-4.83 0.36,-2.6 0.7,-4.85 0.7,-5.01 0.02,-0.15 0.11,0.27 0.2,0.95 0.09,0.67 0.2,1.32 0.25,1.46l0 0zm-19.45 3.93c0.6,0.6 1.03,1.12 0.94,1.12 -0.25,0 -2.18,-1.82 -2.18,-2.05 0,-0.31 0.07,-0.26 1.24,0.93l0 0zm31.53 0.71c-0.34,0.68 -1.1,1.51 -1.64,1.8 -0.41,0.23 -0.41,0.2 0,-0.49 0.38,-0.65 1.53,-1.8 1.79,-1.8 0.07,0 -0.02,0.22 -0.15,0.49zm-26.05 3.37c1.26,1.6 2.2,2.88 2.13,2.88 -0.07,0 -1.19,-0.95 -2.49,-2.11 -2.34,-2.07 -2.38,-2.11 -2.4,-3.13 -0.03,-1.23 -0.25,-1.41 2.76,2.36l0 0zm157.4 -1.3c6.31,2.61 7.34,3.21 9.57,5.52 2.11,2.25 4.04,4.99 4.4,6.27 0.18,0.67 0.13,1.57 -0.2,3.86 -0.25,1.66 -0.57,4.04 -0.7,5.3 -0.45,4.27 -1.24,5.75 -4.94,9.37 -1.37,1.32 -2.9,3.03 -3.39,3.77 -1.57,2.45 -2.32,5.75 -2.9,12.87 -0.34,4.04 -0.47,4.44 -2,5.95 -2.42,2.36 -6.91,4.2 -10.84,4.42l-2.21 0.14 0 -0.54c0,-0.29 0.16,-1.46 0.34,-2.56 0.99,-6 -0.22,-9.57 -4.94,-14.46 -4.76,-4.94 -12.55,-10.27 -21.67,-14.76 -13.43,-6.65 -26.63,-10.06 -45.03,-11.63 -2.22,-0.2 -4.53,-0.41 -5.16,-0.47 -0.61,-0.07 -7.59,-0.27 -15.5,-0.45 -7.9,-0.18 -16.08,-0.43 -18.19,-0.56 -5.14,-0.32 -11.63,-0.92 -11.85,-1.1 -0.39,-0.36 13.4,-4.45 18.57,-5.53 7.61,-1.57 22.79,-2.24 33.03,-1.5 13.72,1.03 21.56,2.02 34.47,4.42 12.67,2.36 17.72,2.92 24.23,2.74 5.1,-0.13 7.42,-0.49 11.05,-1.73 2.99,-0.99 4.61,-1.91 6.27,-3.59 1.71,-1.69 2.33,-3.06 2.76,-5.91 0.16,-1.03 0.34,-1.7 0.5,-1.64 0.11,0.05 2.08,0.86 4.33,1.8zm-167.82 -0.43c0.49,0.3 1.1,0.7 1.34,0.88 0.43,0.36 0.43,0.36 -0.22,0.22 -0.97,-0.22 -1.93,-0.74 -2.58,-1.39l-0.56 -0.56 0.56 0.18c0.31,0.09 0.96,0.4 1.46,0.67l0 0zm30.16 -0.11c-0.16,0.25 -0.38,0.45 -0.5,0.45 -0.11,0 -0.02,-0.2 0.21,-0.45 0.22,-0.25 0.44,-0.45 0.49,-0.45 0.04,0 -0.05,0.2 -0.2,0.45zm-2.09 2.25c0.27,0.22 0.11,0.51 -1.03,1.77 -0.77,0.81 -2.05,2.31 -2.86,3.35 -0.8,1.01 -1.5,1.79 -1.57,1.75 -0.13,-0.14 1.57,-3.01 3.42,-5.75 1.23,-1.82 1.61,-2.25 1.66,-1.86 0.04,0.27 0.22,0.6 0.38,0.74zm6.15 3.95c-0.33,0.4 -1.84,1.21 -2.27,1.21 -0.13,0 0.07,-0.36 0.5,-0.78 0.54,-0.54 0.96,-0.79 1.41,-0.79 0.59,0 0.63,0.04 0.36,0.36l0 0zm-29.82 0.11c0.43,0.16 0.92,0.41 1.1,0.56 0.27,0.27 0.27,0.32 -0.14,0.32 -0.78,0 -2.8,-0.7 -2.67,-0.9 0.18,-0.29 0.77,-0.29 1.71,0.02l0 0zm5.91 2.9c0.94,0.4 1.68,0.78 1.61,0.83 -0.04,0.04 -1.59,-0.2 -3.41,-0.58 -1.84,-0.36 -3.59,-0.72 -3.91,-0.77 -0.31,-0.04 -0.04,-0.11 0.56,-0.13 1.17,-0.03 2.14,-0.5 2.14,-1.04 0,-0.18 0.27,-0.04 0.65,0.32 0.36,0.34 1.43,0.96 2.36,1.37l0 0zm20.34 -0.18c0,0.11 -0.13,0.18 -0.27,0.18 -0.16,0 -0.9,0.31 -1.64,0.67 -0.74,0.36 -1.64,0.68 -2.02,0.68 -0.58,0 -0.4,-0.16 1.24,-1.1 1.55,-0.88 1.97,-1.04 2.29,-0.84 0.22,0.14 0.4,0.32 0.4,0.41l0 0zm-155.51 0.43c1.19,1.21 3.9,3.41 5.14,4.13 1.57,0.92 2.87,1.05 6.49,0.65 4.27,-0.5 10.28,-0.32 15.76,0.47 15.41,2.16 20.98,2.67 29.53,2.67 7.46,0.03 9.8,-0.18 16.74,-1.46 10.77,-1.97 22.63,-3.84 30.42,-4.8 3.98,-0.5 13.43,-0.68 18.04,-0.36 3.84,0.27 7.14,0.69 9.36,1.19 1.21,0.29 1.17,0.29 -2.24,0.42 -1.91,0.07 -3.66,0.21 -3.87,0.3 -0.24,0.11 -0.56,0.02 -0.87,-0.3 -0.97,-0.89 -3.28,-1.21 -4.47,-0.58 -0.79,0.41 -1.57,1.37 -1.57,1.93 0,0.25 -0.12,0.43 -0.25,0.43 -0.13,0 -0.2,0.27 -0.16,0.61 0.05,0.47 0.25,0.62 0.97,0.83 0.87,0.24 0.83,0.27 -2.65,0.98 -4.94,1.01 -25.4,5.71 -29.47,6.76 -1.84,0.5 -6.55,1.85 -10.44,3.01 -3.88,1.19 -9.65,2.9 -12.8,3.84 -14.46,4.27 -22.48,7.57 -31.55,13.05 -12.71,7.64 -20.17,13.95 -22.88,19.36 -0.57,1.14 -0.59,1.17 -1.87,1.32 -1.71,0.21 -4.09,-0.18 -5.59,-0.92 -0.65,-0.31 -1.82,-1.21 -2.58,-1.95 -1.17,-1.19 -1.62,-1.91 -3.3,-5.32 -2.92,-5.95 -4.02,-6.9 -11.39,-9.79 -4.54,-1.78 -6.51,-2.88 -8.26,-4.63 -2.16,-2.18 -2.5,-3.73 -1.22,-5.84 0.43,-0.67 2.14,-3.19 3.84,-5.59 2.59,-3.66 3.51,-5.19 5.55,-9.3 2.67,-5.34 3.55,-6.67 5.26,-7.97 1.59,-1.21 2.51,-1.64 5.77,-2.72 1.57,-0.49 2.92,-1.01 2.98,-1.14 0.25,-0.41 0.7,-0.21 1.58,0.72l0 0zm149.11 3.25c0.81,0.2 1.57,0.52 1.73,0.72 0.25,0.29 0.22,0.34 -0.04,0.22 -0.18,-0.06 -1.02,-0.33 -1.85,-0.6 -0.85,-0.29 -1.52,-0.56 -1.52,-0.61 0,-0.13 0.13,-0.11 1.68,0.27l0 0zm-26.21 0.5c0.39,0.24 -0.58,0.69 -1.88,0.87 -1.06,0.14 -1.19,0 -0.61,-0.65 0.38,-0.43 1.93,-0.56 2.49,-0.22l0 0zm5.78 1.03c-1.73,0.29 -3.6,0.58 -4.16,0.67l-1.01 0.16 0.67 -0.45c0.74,-0.47 3.33,-0.85 6.07,-0.88 1.46,0 1.34,0.03 -1.57,0.5l0 0zm26.83 -0.2c1.06,0.18 1.93,0.33 1.96,0.33 0.02,0 0,0.16 -0.07,0.34 -0.09,0.18 -0.29,0.34 -0.47,0.34 -0.7,0 -4.56,-0.99 -4.56,-1.17 0,-0.27 0.99,-0.23 3.14,0.16l0 0zm15.83 1.46c2.47,0.13 9.71,0.33 16.08,0.45 13.52,0.24 16.22,0.4 25.02,1.34 12.67,1.4 21.96,3.55 31.55,7.35 14.73,5.84 28.93,15.54 32.21,22.05 1.21,2.38 1.37,4.81 0.62,9.34 -0.69,4.09 -0.76,5.03 -0.49,6.83 0.4,2.83 1.55,5.75 4.99,12.66 4.11,8.27 5.27,10.96 6.8,15.54 1.53,4.61 2,6.85 2.02,9.68 0,2.07 -0.04,2.36 -0.67,3.6 -1.15,2.24 -2.94,3.1 -9.25,4.47 -4.88,1.03 -7.84,2.24 -10.65,4.29 -0.83,0.6 -3.21,2.65 -5.32,4.55 -5.44,4.9 -6.87,5.84 -9.68,6.45 -7.66,1.62 -19.87,-2.54 -32.7,-11.14 -5.75,-3.84 -10.01,-7.46 -15.49,-13.05 -7.95,-8.15 -14.76,-16.8 -23.36,-29.73 -5.21,-7.84 -7.52,-11.57 -12.8,-20.55 -4.6,-7.88 -13.25,-22.07 -15.23,-25.04 -1.1,-1.62 -3.41,-4.89 -5.18,-7.3 -0.14,-0.18 1.32,1.15 3.25,2.99l3.51 3.3 -0.09 1.08c-0.14,1.23 0.45,2.27 1.7,3.12 1.44,0.97 2.83,0.49 3.53,-1.19 0.4,-0.99 0.38,-1.44 -0.11,-2.09 -0.38,-0.49 -2.41,-1.37 -3.19,-1.37 -0.23,0 -0.43,-0.09 -0.47,-0.2 -0.03,-0.09 -1.42,-1.48 -3.06,-3.05 -1.66,-1.58 -2.87,-2.81 -2.69,-2.74 5.93,2.51 7.52,3.14 8.42,3.34 0.94,0.23 1.14,0.38 1.53,1.17 0.94,1.91 4.33,3.1 5.5,1.93 0.6,-0.61 0.56,-1.62 -0.11,-2.45 -0.77,-0.9 -2.79,-1.64 -4.27,-1.57 -0.61,0.02 -1.33,-0.07 -1.57,-0.2 -0.27,-0.14 -1.53,-0.63 -2.81,-1.12 -2.83,-1.1 -5.73,-2.36 -4.94,-2.2 0.31,0.06 1.21,0.24 2.02,0.38 0.81,0.13 2.04,0.56 2.79,0.92 1.68,0.87 3.95,1.12 4.62,0.51 0.54,-0.47 0.59,-1.41 0.11,-2.04 -0.18,-0.22 -0.33,-0.52 -0.33,-0.63 0,-0.11 0.81,-0.13 1.86,-0.04 1.01,0.06 3.86,0.22 6.33,0.36l0 0zm-10.93 0.22c0.2,0.11 0.65,0.32 1.01,0.45 0.96,0.34 0.74,0.65 -0.32,0.43 -0.92,-0.23 -2.22,-0.79 -2.22,-0.99 0,-0.2 1.12,-0.11 1.53,0.11l0 0zm-17.56 1.46c-0.23,0.18 -0.54,0.25 -0.68,0.18 -0.13,-0.09 0,-0.22 0.32,-0.31 0.8,-0.23 0.83,-0.23 0.36,0.13zm-5.93 0.45c-1.37,0.63 -1.4,0.63 -1.4,0.36 0,-0.11 0.43,-0.36 0.97,-0.54 1.48,-0.54 1.73,-0.43 0.43,0.18l0 0zm-3.42 -0.2c0,0.15 -1.28,0.67 -2.13,0.85 -0.61,0.14 -0.63,0.11 -0.22,-0.13 0.85,-0.52 2.35,-0.99 2.35,-0.72zm12.58 -0.05c0,0.05 -0.16,0.14 -0.34,0.23 -0.18,0.06 -0.33,0.02 -0.33,-0.09 0,-0.14 0.15,-0.23 0.33,-0.23 0.18,0 0.34,0.05 0.34,0.09zm-22.57 0.9c-0.85,0.36 -1.33,0.92 -1.15,1.37 0.18,0.49 0.68,0.43 3.06,-0.43 3.34,-1.19 3.43,-1.19 3.73,-0.27 0.24,0.79 0.22,0.79 -0.59,1.13 -1.08,0.42 -2.24,1.41 -2.24,1.91 0,0.22 0.2,0.58 0.45,0.8 0.58,0.52 1.91,0.36 3.41,-0.42 0.61,-0.32 1.21,-0.59 1.32,-0.59 0.09,0 1.53,-0.65 3.17,-1.43 3.19,-1.51 4.02,-1.87 3.66,-1.53 -0.11,0.11 -2.4,1.66 -5.07,3.46 -4.41,2.92 -4.9,3.19 -5.12,2.83 -0.41,-0.65 -1.98,-0.54 -3.22,0.25 -0.58,0.35 -1.14,0.87 -1.28,1.12 -0.74,1.37 0.32,3.16 1.85,3.16 1.16,0 1.5,-0.2 1.5,-0.87 0.02,-0.76 1.17,-2.05 1.89,-2.05 0.29,0 1.05,-0.35 1.7,-0.78 0.66,-0.43 1.24,-0.79 1.33,-0.79 0.07,0 0.27,0.21 0.43,0.45 0.2,0.32 0.51,0.45 1.14,0.45 0.76,0 1.08,-0.18 2.45,-1.46 0.87,-0.81 1.64,-1.66 1.73,-1.86 0.07,-0.2 0.67,-0.77 1.35,-1.24l1.23 -0.85 -1.71 1.75c-0.94,0.97 -2.58,2.7 -3.63,3.82 -1.19,1.32 -2.09,2.09 -2.36,2.09 -1.44,0 -4.99,3.01 -4.72,3.99 0.16,0.66 0.77,0.79 2.18,0.5 1.28,-0.27 3.12,-1.6 3.39,-2.45 0.18,-0.61 3.8,-4.36 4,-4.15 0.09,0.09 0.16,0.24 0.16,0.33 0,0.09 -1.49,1.75 -3.28,3.73 -1.8,1.95 -4.81,5.37 -6.67,7.59 -1.89,2.22 -4.83,5.66 -6.56,7.64 -4.29,4.89 -5.73,6.69 -11.99,15.2 -7.82,10.62 -11.14,15.63 -18.37,27.69 -6.38,10.62 -10.33,19.02 -15.59,33.06 -3.57,9.56 -4.69,12.26 -6.96,16.66 -3.37,6.58 -5.48,9.25 -8.22,10.53 -1.08,0.5 -1.62,0.59 -3.1,0.59 -2.24,0 -4.13,-0.57 -8.08,-2.38 -4.61,-2.14 -5.68,-2.54 -11.1,-4.25 -12.5,-3.93 -15.76,-5.93 -16.73,-10.28 -0.18,-0.81 -0.45,-2.81 -0.58,-4.41 -0.63,-7.18 -1.59,-9.63 -5.79,-14.66 -3.19,-3.82 -4,-5.32 -4.5,-8.31 -0.51,-3.05 -0.18,-5.34 1.44,-10.02 3.37,-9.76 3.59,-10.75 3.39,-13.94 -0.13,-2.18 -0.58,-3.53 -2.54,-7.75 -1.3,-2.83 -1.52,-3.46 -1.61,-4.85 -0.2,-3.17 1.32,-6.02 5.32,-9.97 3.93,-3.89 9.48,-7.93 17.16,-12.55 8.49,-5.08 15.47,-8.13 26.2,-11.43 7.64,-2.36 24.71,-7.42 27.74,-8.22 6.38,-1.71 35.17,-8.18 36.49,-8.2 0.54,0 0.54,0 -0.11,0.29l0 0zm41.59 3.21c1.3,0.65 1.66,1.3 0.54,0.97 -0.88,-0.25 -1.42,-0.56 -1.91,-1.1 -0.61,-0.68 -0.09,-0.61 1.37,0.13zm-15.65 3.44c1.03,2.06 1.1,2.31 0.81,2.72 -0.32,0.44 -0.34,0.44 -0.54,0.04 -0.45,-0.85 -1.69,-5.01 -1.48,-5.01 0.04,0 0.58,1.01 1.21,2.25l0 0zm-9.88 -0.36c0,0.04 -0.18,0.22 -0.38,0.38 -0.36,0.29 -0.39,0.27 -0.09,-0.09 0.29,-0.36 0.47,-0.47 0.47,-0.29zm20.05 0.52c0.34,0.15 0.61,0.44 0.61,0.6 0,1.42 -1.15,1.35 -2.11,-0.13 -0.72,-1.08 -0.09,-1.28 1.5,-0.47zm-17.83 1.34c-0.45,0.47 -1.91,2.16 -3.23,3.78 -1.33,1.59 -2.68,3.05 -2.99,3.21 -0.45,0.27 -0.52,0.27 -0.36,0 0.27,-0.43 7.12,-7.82 7.25,-7.82 0.07,0 -0.24,0.38 -0.67,0.83l0 0zm-15.25 0.18c-0.18,0.2 -0.6,0.52 -0.96,0.7 -0.92,0.49 -0.72,-0.07 0.29,-0.76 0.81,-0.54 1.14,-0.5 0.67,0.06zm23.67 6.58c0.11,0.2 -0.02,0.52 -0.34,0.88 -1.43,1.5 0.43,6.35 2.43,6.35 0.79,0 1.19,-0.4 1.82,-1.84 0.38,-0.85 0.43,-1.28 0.29,-2.31 -0.2,-1.39 -0.34,-1.62 -1.14,-1.73 -0.41,-0.04 -0.77,-0.4 -1.28,-1.3 -0.41,-0.68 -0.75,-1.3 -0.75,-1.39 0,-0.09 0.3,-0.18 0.66,-0.18 0.42,0 0.76,-0.18 1.01,-0.57 0.47,-0.71 0.45,-0.98 -0.21,-2.22 -0.62,-1.19 -0.49,-1.32 0.43,-0.34 0.41,0.43 0.81,0.66 1.06,0.59 0.56,-0.16 0.74,0.47 0.18,0.63 -1.24,0.4 -0.83,3.34 0.65,4.67 0.56,0.51 2.18,0.76 2.6,0.4 0.34,-0.29 2.32,2.81 8.6,13.54 7.28,12.42 12.62,20.89 18.42,29.2 9.32,13.36 19,24.5 27.42,31.55 6.35,5.3 14.53,10.51 21.24,13.52 2.85,1.28 3.91,2.18 4.88,4.06 1.19,2.34 1.77,4.47 1.77,6.43 0,2.4 -0.54,3.99 -2.22,6.76 -1.98,3.16 -2.29,4.2 -2.36,7.63 -0.07,3.28 -0.2,3.62 -1.75,4.43 -2.65,1.34 -5.86,1.23 -11.41,-0.41 -2.7,-0.78 -3.59,-0.94 -5.17,-0.96 -1.68,0 -2.08,0.09 -3.36,0.69 -0.81,0.38 -2,1.08 -2.65,1.51 -1.69,1.14 -2.74,1.39 -4.5,1.07 -3.48,-0.62 -7.9,-3.63 -10.06,-6.84l-0.6 -0.88 0.15 -3.53c0.21,-4.62 0.43,-5.99 1.53,-8.53 1.01,-2.38 1.75,-5.05 1.75,-6.31 0,-3.44 -2.6,-10.11 -6.49,-16.66 -3.39,-5.71 -6.44,-9.95 -19.45,-27.11 -8.08,-10.64 -13.02,-18.62 -17.35,-27.96 -4.63,-10.01 -7.24,-18.86 -8,-27.28l-0.13 -1.46 1.07 2.8c0.59,1.55 1.17,2.95 1.26,3.1l0 0zm-12.08 3.55c-2.79,6.76 -3.55,8.47 -6.31,14.46 -0.83,1.8 -2.49,5.68 -3.71,8.65 -1.21,2.96 -2.58,6.24 -3.03,7.3 -3.73,8.62 -5.25,13.4 -7.84,24.5 -2.08,8.98 -2.69,12.91 -3.07,20.52 -0.47,9.44 0.33,18.46 2.4,26.89 1.6,6.49 3.01,10.66 5.26,15.31 0.62,1.35 1.21,2.79 1.28,3.19 0.2,1.21 -1.08,3.48 -3.19,5.64 -2.32,2.33 -2.9,2.53 -7.64,2.49 -2.78,-0.02 -3.68,0.07 -5.12,0.45 -3.3,0.9 -4.74,1.8 -10.71,6.65 -1.3,1.05 -3.12,2.35 -4.07,2.92 -2.71,1.61 -6.67,3.05 -8.44,3.05 -1.21,0 -2.33,-1.21 -3.44,-3.77 -2.22,-5.1 -2.74,-5.75 -6.8,-8.83 -3.32,-2.51 -5.64,-4.71 -7.21,-6.83 -2.22,-2.98 -2.54,-3.75 -2.83,-7.07l-0.2 -2.34 1.46 -1.57c1.68,-1.79 3.3,-4.35 5.61,-8.78 2.18,-4.2 3.33,-6.89 6.72,-15.94 6.38,-17 9.9,-24.23 19.29,-39.53 4.67,-7.61 8.8,-13.7 14.93,-22.01 6.18,-8.35 7.57,-10.1 12.29,-15.49 1.84,-2.11 4.6,-5.35 6.15,-7.19l2.81 -3.37 0.06 0.9c0.09,1.15 0.59,1.69 1.51,1.69 0.58,0 0.92,-0.23 1.64,-0.99 1.08,-1.17 2.06,-3.01 2.06,-3.84 0,-0.38 0.48,-1.15 1.4,-2.25 0.76,-0.92 1.41,-1.64 1.46,-1.61 0.02,0.04 -1.19,3.1 -2.72,6.8l0 0zm7.61 -3.5c1.6,11.68 8.63,28.14 18.04,42.22 2.53,3.79 6.01,8.51 15.36,20.79 7.86,10.31 12.62,17.81 15.24,24.01 1.37,3.26 2,5.55 2,7.39 0,1.66 -0.24,2.56 -1.37,5.23 -1.23,2.94 -1.5,4.33 -1.77,9.16 -0.43,8.27 -1.17,13.18 -2.34,15.74 -1.21,2.63 -2.35,3.64 -6.78,5.96 -3.34,1.75 -3.86,2.08 -7.03,4.4 -3.93,2.87 -4.98,3.03 -9.74,1.5 -5.15,-1.64 -6.58,-1.73 -13.59,-0.83 -5.93,0.76 -12.96,0.88 -15.32,0.23 -3.77,-1.02 -6.26,-3.08 -9.36,-7.71 -4.42,-6.64 -6.85,-11.97 -9.03,-19.94 -2.27,-8.29 -3.16,-15.11 -3.16,-24.28 0,-9.61 0.8,-15.58 3.81,-27.91 2.23,-9.09 3.35,-12.44 7.17,-21.47 0.87,-2.09 2.33,-5.57 3.21,-7.75 0.87,-2.17 2.18,-5.23 2.89,-6.82 0.75,-1.58 1.91,-4.14 2.63,-5.73 0.74,-1.57 2.56,-5.88 4.09,-9.59 1.53,-3.7 2.83,-6.8 2.9,-6.89 0.06,-0.09 0.13,0.54 0.13,1.37 0,1.14 -0.09,1.66 -0.38,1.97 -1.12,1.24 -1.48,4.38 -0.63,5.24 0.65,0.65 2.02,0.6 2.67,-0.07 0.45,-0.52 0.47,-0.63 0.3,-2.7 -0.12,-1.19 -0.3,-2.29 -0.41,-2.44 -0.11,-0.16 -0.16,-1.26 -0.11,-2.43 0.04,-1.17 0.11,-1.98 0.16,-1.8 0.02,0.18 0.22,1.6 0.42,3.15l0 0zm10.45 -0.29c0,0.15 -0.09,0.29 -0.23,0.29 -0.11,0 -0.22,-0.05 -0.22,-0.09 0,-0.05 -0.16,-0.47 -0.34,-0.95l-0.36 -0.87 0.58 0.67c0.32,0.36 0.56,0.81 0.56,0.95l0.01 0zm-20.89 3.07c-0.7,1.04 -1.24,1.37 -0.97,0.63 0.16,-0.45 1.46,-1.89 1.6,-1.75 0.04,0.07 -0.23,0.56 -0.63,1.12zm16.82 0.02c0.79,0.9 0.76,0.84 0.45,1.98 -0.27,1.03 -0.54,0.92 -1.24,-0.61 -0.96,-2.08 -0.53,-2.85 0.79,-1.37zm-7.97 1.22c-0.09,0.63 -0.25,1.14 -0.38,1.14 -0.23,0 -0.07,-1.84 0.2,-2.27 0.27,-0.44 0.34,-0.02 0.18,1.13z"></path></g></svg>