<?xml version="1.0" encoding="UTF-8"?>
<svg width="100pt" height="100pt" version="1.1" viewBox="0 0 100 100" xmlns="http://www.w3.org/2000/svg">
 <path d="m65.938 82.566c-0.80469-0.63281-1.9062-0.96484-3.0703-0.95703-0.98828 0.015625-2.0195 0.25-3.0703 0.69531-3.4336 1.4648-5.8008 4.3359-7.0742 6.2422 0.46875-2.8398 0.61328-5.8984 0.42188-9.168 0.34766-0.23828 1.043-0.64062 1.3672-0.82812l0.24609-0.14453c1.8008-1.082 3.8438-1.7031 5.9062-1.8008 0.27734-0.011719 0.55469-0.015625 0.82813-0.019531 0.6875-0.011719 1.3984-0.019532 2.1016-0.16797 1.207-0.25 2.1445-0.90234 2.5664-1.7852 0.35156-0.73047 0.32812-1.5547 0.25781-2.2656-0.0625-0.63672-0.18359-1.3633-0.61719-1.9375-0.45703-0.60938-1.2188-1-2.2695-1.1602-2.582-0.40234-5.4727 0.63281-7.5508 2.6914-0.83594 0.82812-1.5664 1.8242-2.1641 2.957-0.26172 0.49609-0.56641 1.4688-0.84766 2.3828-0.089844-0.89453-0.19531-1.8008-0.32812-2.7227-0.51562-3.5273-1.3242-7.0391-2.1836-10.477 0.65234-0.36328 2.3594-1.2422 4.1562-1.6523 0.37109-0.085938 0.74609-0.16406 1.1211-0.24219 0.95703-0.19922 1.9453-0.40625 2.8984-0.72266 1.1875-0.39453 2.5234-0.94531 3.4492-2.0352 0.88281-1.0391 1.3164-2.7539 0.42969-4.0234-0.40234-0.57812-1.043-1-1.8047-1.1953-0.61719-0.15625-1.3203-0.16797-2.0859-0.03125-1.5938 0.28906-3.1484 1.1367-4.4961 2.4492-1.0625 1.0391-1.9961 2.3477-2.9375 4.125l-1.0664 2.0156c-0.17188-0.67187-0.33984-1.3398-0.51172-2.0039-0.65625-2.5625-1.3359-5.2148-1.9141-7.8398-0.17187-0.78906-0.33594-1.5781-0.49609-2.3711 0.20703-0.19531 0.39844-0.34766 0.63281-0.43359 0.52734-0.19531 1.1172-0.18359 1.7422-0.17188l0.21094 0.003906c1.9219 0.011719 3.8438-0.21094 5.7031-0.69141 0.91797-0.23828 1.957-0.58203 2.6953-1.3398 0.67578-0.69531 1.0195-1.6797 0.92188-2.6367-0.10156-0.97656-0.65625-1.8633-1.4805-2.3789-0.62109-0.38672-1.3906-0.57031-2.2305-0.51953-0.65625 0.035156-1.3359 0.20312-2.1406 0.52734-0.71875 0.28906-1.418 0.66016-2.082 1.0977-1.5508 1.0312-3.332 2.7969-4.2852 4.918-0.74609-4.0781-1.2773-8.1797-1.5859-12.301 0.66406-0.24609 2.5977-0.86328 4.8203-0.66406 0.57812 0.050781 1.0977 0.13672 1.6016 0.22266 1.4609 0.24219 2.7266 0.45312 4.4727-0.33203 1.3789-0.61719 2.2695-2.2109 2.125-3.7852-0.14453-1.5781-1.4023-2.9375-2.9219-3.1602-0.90234-0.13281-1.7812 0.11719-2.5234 0.375-0.88281 0.30859-1.9102 0.70703-2.8125 1.3047-2.7461 1.8125-4.1602 3.4062-4.8672 4.4375-0.37109-6.1211-0.25781-12.273 0.34766-18.41 0.61719-0.16016 2.1016-0.57422 3.0742-1.1016 1.5312-0.83203 2.9219-2.0586 4.1289-3.6406 0.14062-0.18359 0.39844-0.52344 0.39062-0.94141-0.007813-0.36328-0.21484-0.71094-0.59375-1.0039-0.91797-0.70703-2.2852-0.8125-3.4883-0.27734-0.9375 0.42188-1.7891 1.2031-2.5234 2.3203-0.48828 0.74609-0.89062 1.6797-1.1836 2.4844-0.10156-0.88672-0.21094-1.8359-0.24609-2.1562-0.25-2.3086-0.53125-4.9258-1.7852-7.1289-0.27344-0.47656-0.71484-1.1602-1.4102-1.5781-0.73047-0.4375-1.6133-0.46875-2.25-0.070312-0.40234 0.25-0.71484 0.67969-0.88281 1.2031-0.14844 0.46875-0.17188 0.94531-0.17188 1.3516-0.003906 2.0938 0.60156 4.2109 1.7539 6.1211 1.4961 2.4883 3.7109 3.9141 4.4102 4.3242-0.57031 5.793-0.70703 11.598-0.41406 17.383-0.89062-2.3125-2.0938-4.4727-3.6328-6.4102-0.71094-0.89844-1.6055-1.8984-2.8125-2.4844-1.3281-0.64062-2.7969-0.59766-3.832 0.11328-0.94922 0.65234-1.4922 1.8594-1.3867 3.0742 0.097656 1.0977 0.72266 2.1836 1.6719 2.9023 1.0586 0.80078 2.3477 1.0898 3.5938 1.3711 0.58594 0.12891 1.1875 0.26562 1.75 0.45312 0.46875 0.15625 0.92969 0.35547 1.3711 0.60156 0.77344 0.42578 1.4766 0.96484 2.0898 1.6094 0.30469 0.32031 0.58203 0.66016 0.83203 1.0156 0.13672 0.19531 0.42188 0.73438 0.55859 1 0.29297 3.7148 0.76562 7.4141 1.4102 11.094-0.22656-0.36328-0.46094-0.71094-0.66406-0.96484-1.2578-1.5703-2.75-2.6914-4.3164-3.2344-1.8789-0.65625-3.8906-0.47266-5.3906 0.48438-0.55859 0.35547-0.95312 0.77344-1.1758 1.2344-0.43359 0.89844-0.24219 2.0664 0.48047 2.9102 0.74609 0.86719 1.8047 1.1953 2.5586 1.3203 0.92578 0.15234 1.8555 0.089844 2.75 0.027344 0.39453-0.027344 0.79297-0.082031 1.1914-0.13672 0.76953-0.10547 1.5-0.20703 2.2148-0.10547 1.1836 0.16406 2.3867 0.70703 2.8047 0.90625 0.16016 0.80469 0.32422 1.6094 0.50391 2.4102 0.57812 2.6367 1.2617 5.293 1.9219 7.8633 0.10938 0.42578 0.21875 0.85547 0.32812 1.2852-0.27734-0.29297-0.58984-0.58984-0.92188-0.85938-0.55469-0.44531-1.2305-0.81641-2.1328-1.168-1.7578-0.68359-3.7383-0.83203-5.5781-0.41016-1.0977 0.25-1.9336 0.66016-2.5586 1.2461-0.80078 0.75391-1.1836 1.8125-0.99609 2.7617 0.18359 0.94141 0.92188 1.7695 1.9297 2.1641 0.48438 0.1875 1.0234 0.28516 1.6094 0.28516 0.37891 0 0.78125-0.039062 1.1992-0.11719 0.67578-0.12891 1.332-0.33984 1.9648-0.54688 0.20312-0.066406 0.40625-0.13281 0.60547-0.19531 1.2578-0.39062 4.3242-0.90625 5.4023-1.082 0.84766 3.4023 1.6445 6.8711 2.1523 10.344 0.042969 0.28516 0.074219 0.57031 0.11328 0.85156 0 0 0-0.003906-0.003907-0.007812-0.51172-1.0664-1.4531-2.5234-3.0391-3.3945-1.0391-0.57031-2.2852-0.86328-3.9219-0.92578-2.0117-0.078126-3.6094 0.25-4.875 0.99219-1.6328 0.96094-2.6172 2.707-2.4453 4.3438 0.082031 0.77734 0.42969 1.4023 0.96094 1.7148 0.35547 0.21094 0.76172 0.26172 1.1094 0.28516 1.5703 0.10547 3.0977-0.23828 4.6445-0.58984 1.3633-0.30859 2.9102-0.65625 4.4141-0.51562 1.5391 0.14453 2.8477 0.84375 3.5312 1.875 0.21484 3.5469 0.035156 6.8359-0.53906 9.8555-0.68359-1.1055-2.0312-2.9883-3.7891-3.9609-0.96484-0.53125-2.0977-0.92969-3.4648-1.2148-1.3633-0.28516-2.6172-0.25391-3.7188 0.097656-1.3125 0.41406-2.375 1.293-2.9102 2.4062-0.3125 0.64844-0.42187 1.3164-0.3125 1.9336 0.125 0.73047 0.5625 1.3516 1.1641 1.668 0.62891 0.33203 1.3242 0.28125 1.7969 0.17969 0.44531-0.09375 0.85938-0.25781 1.2578-0.41406l0.28906-0.11328c2.2578-0.86328 4.1875-1.1602 5.8906-0.91406 2.1055 0.30469 3.2344 1.2344 3.5469 1.5273-0.47656 2.0664-1.1406 4-2.0039 5.793l0.70312 0.33984c0.84375-1.7539 1.5-3.6445 1.9844-5.6523 1.5273-1.3086 3.5469-2.0898 5.5586-2.1406 0.74219-0.019531 1.5312 0.0625 2.2852 0.13672 0.40234 0.042969 0.80469 0.082031 1.207 0.10938 0.96484 0.066406 2.3945 0.089844 3.6602-0.46875 1.3047-0.57812 2.2188-1.7383 2.332-2.9609 0.10156-1.0898-0.42188-2.2305-1.3594-2.9688z"/>
</svg>
