<?xml version="1.0" encoding="UTF-8"?>
<svg width="100pt" height="100pt" version="1.1" viewBox="0 0 100 100" xmlns="http://www.w3.org/2000/svg">
 <path d="m75.27 61.609c-0.12891-0.070313-0.28516-0.0625-0.40625 0.019531-2.3242 1.5664-5.1602 2.2539-7.9023 2.9219l-0.91406 0.22266c-3.1797 0.78516-6.4766 1.75-8.7383 4.0938-0.77344 0.80469-1.3359 1.6055-1.7422 2.332 0.21875-3.1016 0.16406-6.1953-0.60547-9.6211 0.22656-0.28906 1.1094-1.3789 2.5859-2.7344 1.0078-0.92188 2.2383-1.5234 3.5391-2.1602 1.3672-0.66797 2.7812-1.3594 3.9023-2.457 1.5312-1.5078 2.4922-3.7852 2.707-6.418 0.1875-2.3281-0.17969-4.6484-0.53125-6.8945-0.027343-0.17969-0.17969-0.31641-0.35937-0.32812-0.19141-0.019532-0.34766 0.10547-0.40234 0.27734-0.55859 1.8789-1.5 3.6836-2.7227 5.2148-1.0664 1.3359-2.3711 2.5117-3.6367 3.6484-0.35938 0.32031-0.71484 0.64453-1.0664 0.96875-1.6328 1.5078-3.2773 3.1875-4.2422 5.2773-0.38672 0.83594-0.58594 1.6602-0.68359 2.4062-0.26953-0.80078-0.57031-1.6172-0.92578-2.4609-0.71484-1.6992-1.6289-3.2852-2.6562-4.8008 0.12891-0.43359 0.56641-1.7422 1.5117-2.7969 0.21875-0.24219 0.59375-0.5625 0.98828-0.89844 0.75391-0.64062 1.6094-1.3633 2.043-2.1016 0.85156-1.4453 1.2383-3.2227 1.1133-5.1328-0.11328-1.7422-0.58984-3.4336-1.0469-5.0703-0.046875-0.17188-0.20312-0.26953-0.38281-0.28516-0.17969 0.003907-0.33203 0.12891-0.37109 0.30078-0.54688 2.3281-1.5039 4.5156-2.8438 6.4961-0.23828 0.35156-0.50781 0.6875-0.79297 1.0469-0.67578 0.84375-1.375 1.7148-1.6211 2.8047-0.3125 1.3906-0.31641 2.5391-0.19141 3.4492-1.2773-1.6484-2.6445-3.2266-3.9961-4.7773-0.32422-0.37109-0.64844-0.75-0.97656-1.1289 0.039062-0.51953 0.24219-2.3164 1.2227-4.1523 0.30078-0.55859 0.60547-1.1172 0.91016-1.6719 0.65234-1.1914 1.3281-2.4219 1.9336-3.668 1.0938-2.2422 1.5781-4.1992 1.4766-5.9883-0.14453-2.5703-1.4805-4.875-2.6602-6.9102-0.089844-0.15625-0.28125-0.23047-0.45703-0.17578-0.17578 0.054688-0.28906 0.22266-0.26953 0.40625 0.20312 2.2891-0.73047 4.5234-1.5664 6.2148-0.26172 0.53125-0.53906 1.0586-0.82031 1.5859-0.76172 1.4453-1.5469 2.9414-2.0312 4.543-0.32031 1.0664-0.50391 2.2227-0.54297 3.4414-0.042968 1.3828 0.15625 2.5664 0.44531 3.5469-0.007813-0.007812-0.019531-0.015624-0.035157-0.03125-0.0625-0.074218-0.125-0.14844-0.1875-0.22656-4.2188-5.3125-6.375-12.625-6.3516-17.18 2.6797-3.2617 3.0586-6.7422 3.0586-10.02 0-1.3398-0.19922-2.6953-0.39453-4.0078-0.24609-1.6523-0.49609-3.3594-0.34766-5.0273 0.015625-0.17578-0.089844-0.34375-0.25781-0.40234-0.16406-0.0625-0.35156 0-0.45312 0.14453-0.50781 0.73047-1.0703 1.3867-1.6172 2.0234-1.6953 1.9766-3.4531 4.0234-3.75 8.4922-0.375 5.6367 2.1523 8.1797 2.9844 8.8555-0.003906 3.9531 1.5703 9.8672 4.6328 14.883-0.34766-0.35156-0.69141-0.72266-1.0117-1.0898-0.4375-0.50781-0.89062-1.1914-1.3711-1.9141-0.77734-1.1719-1.582-2.3867-2.4805-3.1055-2.7578-2.2109-4.7773-2.3867-9.0859-1.7812-0.16797 0.023437-0.30078 0.15234-0.33203 0.32031-0.027344 0.16797 0.054687 0.33594 0.20312 0.41406 1.6836 0.87891 2.9062 2.3281 4.2031 3.8633 0.78906 0.93359 1.6016 1.8984 2.5273 2.7227 0.69922 0.61328 1.4961 1.1719 2.3672 1.6602 3.0273 1.6953 6.3789 2.0352 7.2344 2.0938h0.003906c0.64453 0.79688 1.3047 1.582 1.9727 2.3555 0.082031 0.10547 0.14062 0.16797 0.15234 0.18359 0.003907 0.003906 0.011719 0.007813 0.015625 0.011719 0.35547 0.41016 0.71094 0.82422 1.0625 1.2266 0.50781 0.58203 1.0156 1.168 1.5234 1.7578-0.96094-0.54297-2.1133-0.99219-3.4375-1.168-2.1016-0.28125-4.2695-0.14453-6.1133 0.027344-0.26562 0.023437-0.53125 0.050781-0.80078 0.082031-1.7109 0.17578-3.4805 0.35938-5.043-0.23047-0.1875-0.070312-0.39844 0.011719-0.48828 0.19141-0.089843 0.17969-0.027343 0.39844 0.14453 0.50391 1.8516 1.1523 3.7656 2.3398 5.8555 3.1328 2.3672 0.89453 4.6719 1.1328 6.6719 0.68359l0.29297-0.070313c1.2031-0.28516 3.6953-0.87109 5.7852 0.37891 1.4727 1.957 2.7852 4.0195 3.7305 6.2617 0.80859 1.9219 1.375 3.7148 1.7656 5.4258-1.4297-2.2266-4.2344-5.5391-8.8008-6.7734-1.5586-0.42188-3.1562-0.36328-4.7031-0.30078-2.0859 0.078125-4.2461 0.16016-6.4453-0.91016-0.14062-0.070313-0.30859-0.046875-0.42578 0.054687-0.11719 0.10156-0.16406 0.26562-0.11328 0.41406 1.2617 3.8555 5.7148 6.7266 11.082 7.1406 6.2109 0.48047 9.3047 2.4766 9.8594 2.8711 0.46484 3.4141 0.26562 6.5664-0.097656 9.8438-0.003906 0.015626-0.003906 0.03125-0.003906 0.035157v0.003906c-0.09375 0.84766-0.19922 1.7031-0.30469 2.5742-0.10156 0.83984-0.20703 1.7031-0.30859 2.5859-0.29688-1.8672-0.83203-3.9883-1.8086-5.6484-2.2266-3.7852-5.9453-6.5625-10.207-7.6211-0.97266-0.24219-1.9883-0.39844-2.9688-0.55469-2.293-0.35937-4.4531-0.69531-6.1953-1.9922-0.13281-0.10156-0.3125-0.10547-0.44922-0.011719-0.13672 0.089844-0.20312 0.25781-0.16406 0.41797 1.043 4.2188 3.9414 7.9883 7.7461 10.078 1.457 0.80078 3.0352 1.3672 4.5625 1.9141 0.34375 0.12109 0.6875 0.24609 1.0273 0.37109 1.7969 0.66016 3.668 1.4375 5.1914 2.6562 1.6133 1.2891 2.3477 3.1758 2.8555 4.8555-0.24609 3.7969-0.22656 8.0977 0.51172 13.277l0.77344-0.10938c-1.2148-8.5391-0.46094-14.695 0.20703-20.129 0.10156-0.82031 0.19922-1.625 0.28906-2.4219 0.46875-0.35937 2.332-1.6602 5.0781-1.9922 0.99609-0.12109 1.9062-0.20703 2.7539-0.28906 2.7891-0.26562 4.9961-0.47266 7.3047-1.6875 2.9727-1.5625 4.957-4.8359 5.0586-8.3398 0.003907-0.14844-0.074218-0.28125-0.20312-0.35547zm-28.008-28.422c-0.60156 1.2305-1.2695 2.4531-1.918 3.6367-0.30469 0.55859-0.61328 1.1172-0.91406 1.6797-0.45313 0.84766-0.73828 1.668-0.9375 2.3906-0.20703-2.4688 0.23047-5.0586 1.2695-7.1211 0.22266-0.4375 0.46875-0.86328 0.71484-1.293 0.37891-0.65625 0.76953-1.3359 1.0703-2.0586 0.57031-1.375 0.83984-3.0039 0.80859-4.8438-0.015625-0.91016-0.10547-1.8164-0.22266-2.7148 0.77344 1.4727 1.4336 3.0586 1.5273 4.7266 0.09375 1.6523-0.36328 3.4844-1.3984 5.6016zm-4.8828 0.24609c0.46094-1.5312 1.2305-2.9922 1.9766-4.4062 0.28125-0.53516 0.5625-1.0664 0.82812-1.6055 0.47266-0.95703 0.97266-2.082 1.3008-3.2969 0.042969 0.48828 0.078125 0.97656 0.089844 1.4648 0.03125 1.7344-0.21875 3.2578-0.75 4.5312-0.28125 0.67578-0.66016 1.332-1.0234 1.9688-0.25391 0.4375-0.50781 0.87891-0.73438 1.332-1.1523 2.2852-1.6055 5.0781-1.3281 7.7656-0.48047-1.0586-0.92969-2.5781-0.86719-4.5117 0.035156-1.1484 0.21094-2.2383 0.51172-3.2383zm-5.1484-20.695c0 2.9023-0.30469 5.9688-2.3594 8.8477-0.33984-4.5352-0.38672-9.7695 1.6094-15.785 0.066406 1.0273 0.21484 2.0469 0.36328 3.043 0.19922 1.3438 0.38672 2.6133 0.38672 3.8945zm-5.2578 1.2734c0.28125-4.207 1.875-6.0664 3.5625-8.0352 0.035156-0.042968 0.070313-0.085937 0.10938-0.12891-1.9453 6.0273-1.8906 11.27-1.5469 15.812-0.95703-1.0547-2.4062-3.3828-2.1211-7.6484zm1.4883 18.188c0.80078 0.64062 1.5703 1.8047 2.3164 2.9258 0.49219 0.74609 0.96094 1.4492 1.4297 1.9922 0.70703 0.82422 1.5273 1.6289 2.2305 2.2773-2.1289-1.0391-4.2148-2.7148-6.3242-5.0977-0.69141-0.78125-2.5664-2.8867-5.9062-3.9688 2.6484-0.19141 4.2148 0.23438 6.2539 1.8672zm0.76172 5.9062c-0.82422-0.46094-1.5781-0.98828-2.2344-1.5664-0.88281-0.78516-1.6797-1.7305-2.4492-2.6406-0.84766-1.0039-1.7227-2.0234-2.7344-2.8789 3.2422 1 5.0586 3.043 5.7227 3.793 1.8906 2.1328 3.7695 3.7188 5.6875 4.8125-1.2227-0.29688-2.6484-0.76953-3.9922-1.5195zm20.113 6.8125c-0.36719 0.62109-1.168 1.3008-1.875 1.8984-0.41797 0.35547-0.8125 0.6875-1.0664 0.97266-0.37109 0.41406-0.66797 0.85547-0.90625 1.2773 0.28516-1.9141 1.0703-3.0625 1.9531-4.3359 1.0742-1.5508 2.2656-3.2695 2.5742-6.6875 0.15234 0.72266 0.27344 1.4531 0.32422 2.1836 0.11328 1.7539-0.23438 3.375-1.0078 4.6875zm-4.5117 0.73047c0.20703-0.91797 0.82031-1.6797 1.4688-2.4883 0.28125-0.35156 0.57422-0.71875 0.83203-1.0977 0.86328-1.2773 1.5664-2.6328 2.1172-4.0586-0.28906 3.1797-1.3789 4.7539-2.4375 6.2852-0.92969 1.3398-1.8164 2.6289-2.1094 4.8164-0.15625-0.86328-0.19531-2.0156 0.12891-3.457zm-14.293 0.48828c0.26562-0.027344 0.53125-0.054688 0.79297-0.078125 1.8906-0.17578 3.918-0.30078 5.9375-0.03125 1.8398 0.24609 3.3281 1.082 4.4023 1.9141-1.9609-0.73828-3.9961-0.78125-6.1094-0.82031-2.1172-0.039063-4.4414-0.09375-7.0391-0.82422 0.67188-0.027344 1.3477-0.089844 2.0156-0.16016zm7.1758 2.6758-0.28516 0.066406c-1.8516 0.41406-4.0039 0.19141-6.2266-0.65234-0.74609-0.28125-1.4727-0.625-2.1836-0.99219 2.3945 0.57812 4.5508 0.62891 6.5273 0.66797 1.793 0.035156 3.4336 0.074218 5.0039 0.5-1.1523 0.015625-2.1758 0.25391-2.8359 0.41016zm24.211-1.0742c-0.19922 2.4453-1.0781 4.5508-2.4766 5.9258-1.0273 1.0078-2.3242 1.6445-3.6953 2.3125-1.293 0.63281-2.6328 1.2891-3.7266 2.2891-0.70703 0.64844-1.2695 1.2266-1.707 1.7031 0.80859-2.375 2.7695-4.0391 4.832-5.7852 2.7383-2.3164 5.7734-4.8828 6.7266-9.5469 0.09375 1.0352 0.12891 2.0703 0.046875 3.1016zm-7.4141 3.5273c0.35156-0.32422 0.70703-0.64062 1.0625-0.96094 1.2852-1.1562 2.6172-2.3555 3.7227-3.7422 0.79297-0.99219 1.4609-2.0938 2.0039-3.2539-0.58203 5.1484-3.6641 7.7539-6.6523 10.281-2.0039 1.6953-3.918 3.3164-4.8711 5.5938 0.035157-0.84766 0.20312-1.8633 0.67578-2.8867 0.90625-1.9648 2.4883-3.5781 4.0625-5.0273zm-18.809 4.0781c1.5547-0.058594 3.0234-0.11719 4.4688 0.27734 3.6484 0.98828 6.125 3.4062 7.6211 5.3906-2.6602-2.0781-5.6758-2.5859-8.6133-3.0781-2.8242-0.47266-5.7266-0.96484-8.3242-2.8789 1.6641 0.40234 3.2773 0.34766 4.8516 0.28906zm-5.4336 0.25391c2.7617 2.0938 5.8125 2.6133 8.7773 3.1094 3.3398 0.55859 6.5234 1.1016 9.2344 3.7852-1.6523-0.76172-4.4062-1.6914-8.457-2.0039-4.2031-0.32422-7.7969-2.2148-9.5586-4.8906zm22.609 13.812c2.1133-2.1953 5.2891-3.1172 8.3594-3.8789l0.91016-0.22266c2.2227-0.53906 4.5078-1.0938 6.5742-2.1172-1.4258 1.6953-3.9609 3.7188-8.2656 4.5625-1.7578 0.34375-3.2109 0.69531-4.5977 1.293-2 0.85938-3.6641 1.8867-4.8125 2.9375 0.38672-0.77344 0.96484-1.6758 1.832-2.5742zm-16.168-2.7383c4.0586 1.0078 7.6055 3.6523 9.7227 7.2578 0.91406 1.5586 1.4219 3.6016 1.707 5.4023-1.0195-2.5742-2.5625-4.7539-4.5938-6.4062-1.6914-1.375-3.7578-2.1758-5.7383-2.832-2.1406-0.71094-3.9219-1.4609-5.6133-2.3594-1.4688-0.78125-2.6797-1.7891-3.5352-2.9141 1.5977 0.75391 3.3945 1.0391 5.1484 1.3164 0.96484 0.14844 1.9609 0.30859 2.9023 0.53906zm9.4258 11.516c-1.6094-1.2891-3.5508-2.0977-5.4102-2.7812-0.34375-0.125-0.6875-0.25-1.0352-0.375-1.4961-0.53906-3.0469-1.0938-4.4492-1.8633-2.8203-1.5508-5.1016-4.0703-6.4492-7.0039 0.83203 0.85938 1.8516 1.6289 3.0312 2.2578 1.7305 0.92188 3.5508 1.6875 5.7344 2.4141 1.9102 0.63672 3.8984 1.4023 5.4922 2.6992 1.8711 1.5234 3.3125 3.5195 4.2812 5.8828-0.34375-0.4375-0.73438-0.85547-1.1992-1.2266zm18.922-8.5742c-2.1719 1.1445-4.2031 1.3359-7.0156 1.6016-0.85547 0.082031-1.7734 0.16797-2.7773 0.28906-1.5469 0.1875-2.8203 0.65625-3.7617 1.1172 0.86719-0.82031 2.3008-1.8398 4.6602-2.8555 1.3242-0.57031 2.7305-0.91016 4.4414-1.2422 4.7109-0.92188 7.418-3.207 8.8945-5.0469-0.53906 2.6016-2.1992 4.957-4.4453 6.1406z"/>
</svg>
