<?xml version="1.0" encoding="UTF-8"?>
<svg width="100pt" height="100pt" version="1.1" viewBox="0 0 100 100" xmlns="http://www.w3.org/2000/svg">
 <path d="m82.102 93.918c3.9883-3.1953 5.8672-6.4609 4.2773-7.0039-1.6055-0.53906-4.1523 5.0156-4.2773 5.2539v-2.1484c0.79297-2.3828 4.8711-8.9531 2.9609-9.7812-1.9141-0.82812-2.7422 4.0078-2.9609 5.1992v-5.4336c0.10938-2.1641 4.7305-12.309 2.8867-12.852-1.8398-0.52344-2.707 5.5391-3.0508 9.2773 0 0 0.16016-7.6719 0.17969-7.7266 0.88281-4.1523 5.9375-12.508 3.8242-13.52-2.1133-1.0117-3.3047 4.8711-3.8242 9.5664v-24.98c0-14.656-9.7812-27.074-23.176-31.043 3.3555 0.37891 7.0195 0.41406 6.3516-1.4609-0.66797-1.8789-8.4453-1.6055-14.422 0.14453-0.39844-0.019531-0.77734-0.019531-1.1719-0.019531-1.3164 0-2.6172 0.070313-3.8789 0.23438 2.7617-0.9375 9.3125-3.5938 7.6172-5.7227-1.6953-2.1133-9.9805 4.5469-14.258 7.2383-2.0938 0.72266-4.0977 1.6602-5.9727 2.7773 3.8984-3.2148 8.9688-8.6641 5.4688-8.9141-3.5-0.25391-14.457 16.875-15.484 18.371 1.9492-3.8984 6.1719-12.672 2.9258-12.941-3.25-0.26953-4.2969 12.383-5.957 17.742-0.79297 1.9688-0.82812 2.2188-1.3711 3.9883 0.035157-2.5625 0.21875-8.4844-2.4375-7.6328-2.6523 0.84766 0.92188 12.383 1.1172 14.148-0.30859 1.7852-0.14453 6.8594-0.14453 6.8594-0.32422-2.5625-1.1562-7.8164-3.2148-7.1484s3.0312 14.203 3.2148 19.203v5.9023c-0.14453-1.6602-1.1562-8.7188-3.3555-7.9961-2.2031 0.72266 2.6367 10.703 3.3555 14.168v4.2969c-0.53906-2.582-2.5977-7.6719-4.3672-6.9492s2.7969 7.1484 4.3672 11.641v5.3242c-0.63281-3.375-2.2031-7.9766-4.0781-6.9141-1.8789 1.0625 2.7266 8.5742 4.0781 13.23v6.2109h35.066c-0.41406 0.125-3.5938 1.082-2.7422 2.5078 0.84766 1.4062 7.1992-1.7344 10.344-2.5078h4.9453c-2.0195 0.28906-6.2812 0.84766-5.4141 2.8164 0.86719 1.9688 10.723-2.9414 12.109-2.8164h1.9492c-0.86719 0.21875-3.1562 0.97656-2.293 2.0938 0.86719 1.1172 6.0117-1.5898 8.6289-2.0938h0.75781c-3.2148 1.6953-4.2422 3.4453-3.7891 3.8789 0.48828 0.44922 3.4844-0.46875 4.8711-3.9531 1.8398 1.3711 5.6836 1.4062 5.6836 0.17969 0-1.2266-5.3438-0.70312-5.3438-0.70312zm2.5977-26.027c0.84766 0.25391-1.7148 6.6602-2.4922 9.6367 0.035157-0.19922 1.3164-9.9648 2.4922-9.6367zm-32-65.422c1.0273 1.3008-7.9961 5.3438-11.805 6.0625 2.9766-1.2461 10.773-7.3633 11.805-6.0625zm-38.117 34.758c1.3359-0.43359 2.9609 9.8906 2.8867 15.035-0.55859-4.8008-4.2031-14.617-2.8867-15.035zm66.852 44.781s-4.1133-9.4766-2.9609-9.8164c1.1367-0.32422 2.8711 6.2812 2.9609 9.8164zm0.10938-10.598c-0.82812-3.4102-4.2227-9.0977-2.8711-9.8008s2.2734 3.3203 2.6875 6.3711l0.17969 3.4297zm-2.5664 12.059c1.1914-0.21875 2.2188 4.8203 2.3828 7.5078 0 0-3.5742-7.293-2.3828-7.5078zm2.3828 9.9258c-1.5508-1.3359-5.0547-3.6445-4.6211-4.2969 0.52344-0.73828 4.5859 3.6289 4.6211 4.2969zm4.8906-5.8828c0.53906 0.55859-1.7852 3.8242-4.1523 5.8281v-0.30859c0.99219-2.2188 3.6094-6.082 4.1523-5.5234zm-1.5508-6.6992c1.0273 0.34375-1.75 5.5586-2.6172 8.3008v-1.625c0.28906-1.4453 1.5898-7.0195 2.6172-6.6797zm0.70312-25.031c1.5898 0.37891-2.3086 7.5273-3.3047 11.371 0 0 1.7148-11.75 3.3047-11.371zm-20.754-48.188c0.070312 0.92188-3.5352 0.66797-4.8555 0.64844-0.92188-0.019532-2.0742-0.070313-3.1758-0.10938-1.4062-0.30859-2.3477-0.46875-3.8242-0.59766 7.5977-1.6797 11.77-0.86719 11.859 0.054688zm-18.68 0.75781c0.66797-0.089843 1.1016-0.10937 1.7852-0.16016 3.375 0.17969 9.3672 2.3984 8.1406 3.4453-1.2461 1.0664-4.8906-2.3828-9.9258-3.2852zm-15.918 6.6406c2.9062-2.5078 12.184-3.6094 12.184-2.3633s-10.723 0.99219-13.754 3.5195c0.57812-0.52344 0.97656-0.66797 1.5703-1.1562zm8.7148-11.117c1.5898 1.3359-10.18 11.336-11.102 12.199 1.082-1.2812 9.4922-13.535 11.102-12.199zm-7.9414 15.27c0.99219 1.75-6.7148 4.8203-10.668 9.3125 0.97656-2.3633 9.6758-11.062 10.668-9.3125zm-4.6914-9.875c2.1484 0.17969-4.8008 14.801-4.8008 14.801 1.082-2.4375 2.6523-14.98 4.8008-14.801zm-9.4766 13.918c1.4805 0 1.5156 6.2461 1.4805 9.332-0.17969 0.75781-0.32422 1.5352-0.44922 2.3281-0.25391-2.3281-2.5078-11.66-1.0273-11.66zm1.4102 35.914c0.41406-4.1133 2.707-11.621 3.7891-11.391 1.082 0.21875-3.3555 10.539-3.7891 12.887zm0-16.117c0.32422-1.6055 3.4648-10.793 4.8711-9.8711s-3.6992 7.9609-4.8711 12.344zm0 48.316c0.66797-2.8711 3.7734-9.3125 4.5469-9.1523 0.8125 0.19922-2.8359 6.7148-4.5469 9.1523zm0-10.629c0.23438-0.95703 2.5273-8.6094 3.5742-8.3008 1.0664 0.30859-3.4102 10.629-3.5742 11.73zm0-10.559c0.37891-1.9688 2.8164-10.828 4.0625-10.25s-3.0156 7.7422-4.0625 12.074zm-3.8984-15.867c1.1172-0.30859 2.9609 7.0586 3.1562 10.359v1.4453c-0.6875-2.8867-4.2578-11.496-3.1562-11.805zm-0.75781 11.406c0.99219-0.66797 3.6641 7.0938 3.9141 8.5742v1.1172c-0.99219-3.4453-4.9102-9.043-3.9141-9.6914zm0.10547 10.02c1.0117-0.59766 3.2305 5.1602 3.7891 8.5742v2.3828c-0.9375-3.9141-4.8008-10.359-3.7891-10.953zm4.5508 18.102v-1.2461c1.6055-2.2734 6.7852-10.234 4.8906-11.152-1.8945-0.92188-4.7812 7.4883-4.8906 7.8516v-3.4844c0.17969-0.88281 6.0117-13.5 4.043-14.133s-3.8438 5.7734-4.043 6.7148v-4.6758c1.082-4.6367 6.5898-13.859 4.3867-14.672s-4.0234 6.9688-4.3867 9.3477v-5.7734c1.0273-4.7305 5.9922-14.801 4.332-15.629-1.6602-0.82812-3.9141 5.2148-4.332 8.6641 0 0 0.089844-8.0312 0.17969-8.2852-0.21875-2.3477 7.4531-13.664 5.125-14.801s-4.9453 6.8203-5.3047 8.375c0 0-0.19922-6.0117 1.5703-10.953 1.8945-3.1562 13.57-8.5742 12.074-11.082-1.4961-2.5078-7.6328 3.3945-9.9453 6.1367 1.2461-2.3477 4.0781-6.6797 7.9219-8.7891 3.8438-2.1133 13.609-1.5156 13.59-3.4297-0.019532-1.9141-4.7461-1.9492-10.016 0.035157 3.3945-2.0742 7.1992-3.5195 11.262-4.1875 3.2656-0.089844 10.973 5.2148 12.109 3.5352 1.1367-1.6797-3.3398-3.4844-5.8672-3.9531 16.965 0.55859 30.594 14.527 30.594 31.621v25.176c-0.48828-2.3828-1.5508-5.0352-3.1953-3.8984-1.6445 1.1367 2.3086 8.0508 3.1953 11.965v4.1328c-0.10938-0.82812-1.3164-6.6055-3.2656-5.7031-1.9492 0.90234 2.3477 8.6641 3.2656 12.578v3.1953c-0.30859-1.8242-1.1367-5.0547-2.7266-4.2969-1.5898 0.75781 1.1562 5.8828 2.7266 9.5469-1.4609-1.8945-3.8086-5.0703-5.0703-3.7188-1.2812 1.3555 3.1758 3.7734 4.9805 5.0156h-0.16016c-1.9844-0.63281-8.7891-5.2695-9.9102-3.1953-1.1172 2.0742 3.9883 2.7773 5.8672 3.1953h-3.2148c-3.3555-0.88281-9.6016-3.9531-10.234-2.3477-0.63281 1.6055 2.3984 1.9141 5.2891 2.3477h-5.7031c-2.5625-0.6875-7.1094-3.9336-8.0664-2.3984s2.5078 1.9492 3.9336 2.3477c-0.97656-0.019531-1.9844 0-2.9766 0.054688l-38.027 0.003906zm60.84 0.054687c-0.6875-0.16016-7.9609-1.8047-7.1484-2.9961 0.8125-1.1914 5.5586 1.8789 8.3555 2.9961h-1.2109zm-8.1055-0.054687c-2.1484-0.46875-7.1289-1.1367-6.6055-2.0586 0.50391-0.92188 5.4688 1.3711 8.375 2.0586zm-9.293 0c-2.582-0.50391-6.3906-1.3906-5.8477-2.1289 0.53906-0.75781 4.332 1.6406 6.5703 2.2031l-0.72266-0.070312zm-11.227 2.7227c-0.57812-0.92188 3.3203-1.6602 4.6211-1.9688l3.2852-0.089844c-2.5273 0.57812-7.3281 2.9609-7.9062 2.0586zm10.016 0.50781c-0.55859-1.0273 4.3867-2.2188 6.7148-2.4922h2.6367c-3.1211 0.70312-8.7891 3.5195-9.3477 2.4922zm11.48-0.8125c-0.35938-0.55859 2.6719-1.7344 4.6211-1.6797h1.8594c-2.3086 0.46875-6.1172 2.2383-6.4805 1.6797zm5.668 1.6953c-0.37891-0.46875 3.2656-2.8867 3.8789-3.4297-0.28906 1.4062-3.5 3.8984-3.8789 3.4297zm4.7461-3.5703c0.55859 0.054688 4.6211-0.125 4.6562 0.39844 0.035156 0.50391-3.5547 0.32422-4.6562-0.39844z"/>
</svg>
